<?xml version="1.0" encoding="UTF-8" standalone="no"?>
<!-- Created with Inkscape (http://www.inkscape.org/) -->
<svg
   xmlns:dc="http://purl.org/dc/elements/1.1/"
   xmlns:cc="http://web.resource.org/cc/"
   xmlns:rdf="http://www.w3.org/1999/02/22-rdf-syntax-ns#"
   xmlns:svg="http://www.w3.org/2000/svg"
   xmlns="http://www.w3.org/2000/svg"
   xmlns:sodipodi="http://sodipodi.sourceforge.net/DTD/sodipodi-0.dtd"
   xmlns:inkscape="http://www.inkscape.org/namespaces/inkscape"
   width="744.09448819"
   height="1052.3622047"
   id="svg2"
   sodipodi:version="0.32"
   inkscape:version="0.45pre1"
   sodipodi:docbase="M:\"
   sodipodi:docname="spaghetti.svg"
   inkscape:output_extension="org.inkscape.output.svg.inkscape"
   sodipodi:modified="true">
  <defs
     id="defs4" />
  <sodipodi:namedview
     id="base"
     pagecolor="#ffffff"
     bordercolor="#666666"
     borderopacity="1.0"
     gridtolerance="10000"
     guidetolerance="10"
     objecttolerance="10"
     inkscape:pageopacity="0.0"
     inkscape:pageshadow="2"
     inkscape:zoom="1.4"
     inkscape:cx="103.21774"
     inkscape:cy="914.34297"
     inkscape:document-units="px"
     inkscape:current-layer="layer1"
     showgrid="true"
     inkscape:window-width="1400"
     inkscape:window-height="1018"
     inkscape:window-x="-4"
     inkscape:window-y="-4" />
  <metadata
     id="metadata7">
    <rdf:RDF>
      <cc:Work
         rdf:about="">
        <dc:format>image/svg+xml</dc:format>
        <dc:type
           rdf:resource="http://purl.org/dc/dcmitype/StillImage" />
      </cc:Work>
    </rdf:RDF>
  </metadata>
  <g
     inkscape:label="Layer 1"
     inkscape:groupmode="layer"
     id="layer1">
    <path
       style="fill:#8da0cb;fill-opacity:0;stroke:#000000;stroke-width:0.53149605;stroke-miterlimit:0.02203857;stroke-dasharray:none;stroke-opacity:1"
       d="M 0,-29.066388 C 10,-29.066388 10.714286,-17.637817 10.714286,-17.637817 L 10,-7.6378174 L 20.714286,-7.6378174 C 20.714286,-7.6378174 30,-7.6378174 30,2.3621826 C 30,12.362183 20,12.362183 20,12.362183 L 10,12.362183 L 10,22.362183 C 10,22.362183 10,32.362183 0,32.362183 C -10,32.362183 -10,22.362183 -10,22.362183 L -10,12.362183 L -20,12.362183 C -20,12.362183 -30,12.362183 -30,2.3621826 C -30,-7.6378174 -20,-7.6378174 -20,-7.6378174 L -10,-7.6378174 L -10,-17.637817 C -10,-17.637817 -11.428571,-27.637819 0,-29.066388 z "
       id="path2180"
       sodipodi:nodetypes="ccccscccscccscccc" />
  </g>
</svg>
