<?xml version="1.0" encoding="UTF-8" standalone="no"?>
<!-- Created with Inkscape (http://www.inkscape.org/) -->
<svg
   xmlns:dc="http://purl.org/dc/elements/1.1/"
   xmlns:cc="http://web.resource.org/cc/"
   xmlns:rdf="http://www.w3.org/1999/02/22-rdf-syntax-ns#"
   xmlns:svg="http://www.w3.org/2000/svg"
   xmlns="http://www.w3.org/2000/svg"
   xmlns:sodipodi="http://sodipodi.sourceforge.net/DTD/sodipodi-0.dtd"
   xmlns:inkscape="http://www.inkscape.org/namespaces/inkscape"
   width="744.09448819"
   height="1052.3622047"
   id="svg2"
   sodipodi:version="0.32"
   inkscape:version="0.45"
   sodipodi:modified="true">
  <defs
     id="defs4" />
  <sodipodi:namedview
     id="base"
     pagecolor="#ffffff"
     bordercolor="#666666"
     borderopacity="1.0"
     gridtolerance="10000"
     guidetolerance="10"
     objecttolerance="10"
     inkscape:pageopacity="0.0"
     inkscape:pageshadow="2"
     inkscape:zoom="0.35"
     inkscape:cx="375"
     inkscape:cy="520"
     inkscape:document-units="px"
     inkscape:current-layer="layer1"
     inkscape:window-width="1378"
     inkscape:window-height="840"
     inkscape:window-x="67"
     inkscape:window-y="73" />
  <metadata
     id="metadata7">
    <rdf:RDF>
      <cc:Work
         rdf:about="">
        <dc:format>image/svg+xml</dc:format>
        <dc:type
           rdf:resource="http://purl.org/dc/dcmitype/StillImage" />
      </cc:Work>
    </rdf:RDF>
  </metadata>
  <g
     inkscape:label="Layer 1"
     inkscape:groupmode="layer"
     id="layer1">
    <path
       sodipodi:type="star"
       style="fill:none;fill-opacity:1;stroke:#000000;stroke-opacity:1"
       id="path2160"
       sodipodi:sides="8"
       sodipodi:cx="0"
       sodipodi:cy="3.790754"
       sodipodi:r1="280.77153"
       sodipodi:r2="136.1983"
       sodipodi:arg1="0.54565505"
       sodipodi:arg2="0.93835414"
       inkscape:flatsided="false"
       inkscape:rounded="0.3"
       inkscape:randomized="0"
       d="M 239.99999,149.50503 C 214.54842,191.42526 120.0654,84.657091 80.509044,113.64644 C 40.952685,142.63579 114.30912,264.88682 66.670065,276.53192 C 19.031011,288.17703 27.717926,145.87095 -20.751209,138.39895 C -69.220343,130.92694 -103.79405,269.24231 -145.71428,243.79074 C -187.6345,218.33917 -80.866337,123.85616 -109.85569,84.299798 C -138.84503,44.743439 -261.09607,118.09987 -272.74117,70.460819 C -284.38627,22.821765 -142.0802,31.50868 -134.60819,-16.960455 C -127.13619,-65.429589 -265.45155,-100.00329 -239.99999,-141.92352 C -214.54842,-183.84375 -120.0654,-77.075583 -80.509044,-106.06493 C -40.952685,-135.05428 -114.30912,-257.30531 -66.670065,-268.95042 C -19.031011,-280.59552 -27.717926,-138.28944 20.751209,-130.81744 C 69.220343,-123.34543 103.79405,-261.6608 145.71428,-236.20923 C 187.6345,-210.75766 80.866337,-116.27465 109.85569,-76.71829 C 138.84503,-37.161931 261.09607,-110.51837 272.74117,-62.879311 C 284.38627,-15.240257 142.0802,-23.927172 134.60819,24.541963 C 127.13619,73.011098 265.45155,107.5848 239.99999,149.50503 z " />
  </g>
</svg>
