<?xml version="1.0" encoding="UTF-8" standalone="no"?>
<!-- Created with Inkscape (http://www.inkscape.org/) -->
<svg
   xmlns:dc="http://purl.org/dc/elements/1.1/"
   xmlns:cc="http://web.resource.org/cc/"
   xmlns:rdf="http://www.w3.org/1999/02/22-rdf-syntax-ns#"
   xmlns:svg="http://www.w3.org/2000/svg"
   xmlns="http://www.w3.org/2000/svg"
   xmlns:sodipodi="http://sodipodi.sourceforge.net/DTD/sodipodi-0.dtd"
   xmlns:inkscape="http://www.inkscape.org/namespaces/inkscape"
   width="744.09448819"
   height="1052.3622047"
   id="svg2"
   sodipodi:version="0.32"
   inkscape:version="0.45pre1"
   sodipodi:docbase="M:\"
   sodipodi:docname="teapot_outline.svg"
   inkscape:output_extension="org.inkscape.output.svg.inkscape"
   sodipodi:modified="true">
  <sodipodi:namedview
     id="base"
     pagecolor="#ffffff"
     bordercolor="#666666"
     borderopacity="1.0"
     gridtolerance="10000"
     guidetolerance="10"
     objecttolerance="10"
     inkscape:pageopacity="0.0"
     inkscape:pageshadow="2"
     inkscape:zoom="1.4142136"
     inkscape:cx="240.02305"
     inkscape:cy="778.68653"
     inkscape:document-units="px"
     inkscape:current-layer="layer1"
     inkscape:window-width="1050"
     inkscape:window-height="1368"
     inkscape:window-x="-4"
     inkscape:window-y="-4" />
  <defs
     id="defs4" />
  <metadata
     id="metadata7">
    <rdf:RDF>
      <cc:Work
         rdf:about="">
        <dc:format>image/svg+xml</dc:format>
        <dc:type
           rdf:resource="http://purl.org/dc/dcmitype/StillImage" />
      </cc:Work>
    </rdf:RDF>
  </metadata>
  <g
     inkscape:groupmode="layer"
     id="layer1"
     inkscape:label="Layer 1">
    <path
       style="fill:#8da0cb;fill-opacity:0;stroke:#000000;stroke-width:0.53149605;stroke-miterlimit:0.02203857;stroke-dasharray:none;stroke-opacity:1"
       d="M -195.55271,-162.19626 L -154.83842,-147.91054 C -154.83842,-147.91054 -139.83842,-128.62483 -136.98128,-97.910541 C -134.12413,-67.196261 -126.26699,-67.910541 -126.26699,-67.910541 C -126.26699,-67.910541 -91.981277,-115.0534 -81.266987,-117.91054 C -70.552707,-120.76769 -2.6955668,-101.48197 3.0187232,-100.76769 C 8.7330132,-100.0534 25.161583,-98.624831 30.161583,-107.19626 C 35.161583,-115.76769 18.018723,-134.33912 20.161583,-136.48197 C 22.304433,-138.62483 36.590153,-137.91054 53.018723,-132.19626 C 69.447293,-126.48197 79.447293,-120.0534 78.733013,-116.48197 C 78.018723,-112.91054 58.733013,-111.48197 55.875863,-101.48197 C 53.018723,-91.481971 69.447293,-77.910541 103.01872,-64.339121 C 136.59015,-50.767691 138.01872,-49.339121 145.87586,-39.339121 C 153.73301,-29.339121 153.75637,29.514079 151.2456,54.600219 C 147.88341,88.193249 156.26761,82.034479 140.94047,106.19391 C 125.97924,129.77659 105.76818,141.81487 70.161583,152.08946 C 46.053543,159.04604 15.875863,163.51803 -36.266987,148.51803 C -88.409847,133.51803 -130.5527,101.37517 -139.83842,83.518029 C -149.12413,65.660879 -164.12413,34.946599 -165.55271,17.803739 C -166.98128,0.66087871 -159.12413,-19.339121 -159.12413,-19.339121 C -159.12413,-19.339121 -180.55271,-37.910541 -171.26699,-97.910541 C -171.26699,-97.910541 -169.12413,-135.0534 -195.55271,-162.19626 z "
       id="path2241"
       sodipodi:nodetypes="ccscsssssssssssssssccc" />
  </g>
</svg>
