<?xml version="1.0" encoding="UTF-8" standalone="no"?>
<!-- Created with Inkscape (http://www.inkscape.org/) -->
<svg
   xmlns:dc="http://purl.org/dc/elements/1.1/"
   xmlns:cc="http://web.resource.org/cc/"
   xmlns:rdf="http://www.w3.org/1999/02/22-rdf-syntax-ns#"
   xmlns:svg="http://www.w3.org/2000/svg"
   xmlns="http://www.w3.org/2000/svg"
   xmlns:sodipodi="http://sodipodi.sourceforge.net/DTD/sodipodi-0.dtd"
   xmlns:inkscape="http://www.inkscape.org/namespaces/inkscape"
   width="744.09448819"
   height="1052.3622047"
   id="svg2"
   sodipodi:version="0.32"
   inkscape:version="0.45"
   sodipodi:docname="star.svg"
   inkscape:output_extension="org.inkscape.output.svg.inkscape"
   sodipodi:docbase="/home/fryan/fryan/work/metaarith/sh/examples/go"
   sodipodi:modified="true">
  <defs
     id="defs4" />
  <sodipodi:namedview
     id="base"
     pagecolor="#ffffff"
     bordercolor="#666666"
     borderopacity="1.0"
     gridtolerance="10000"
     guidetolerance="10"
     objecttolerance="10"
     inkscape:pageopacity="0.0"
     inkscape:pageshadow="2"
     inkscape:zoom="0.98994949"
     inkscape:cx="186.31653"
     inkscape:cy="1056.662"
     inkscape:document-units="px"
     inkscape:current-layer="layer1"
     inkscape:window-width="1378"
     inkscape:window-height="840"
     inkscape:window-x="67"
     inkscape:window-y="73"
     showgrid="true" />
  <metadata
     id="metadata7">
    <rdf:RDF>
      <cc:Work
         rdf:about="">
        <dc:format>image/svg+xml</dc:format>
        <dc:type
           rdf:resource="http://purl.org/dc/dcmitype/StillImage" />
      </cc:Work>
    </rdf:RDF>
  </metadata>
  <g
     inkscape:label="Layer 1"
     inkscape:groupmode="layer"
     id="layer1">
    <path
       style="fill:none;fill-opacity:1;stroke:#000000;stroke-opacity:1"
       d="M 145.04565,96.977098 C 136.76667,108.59275 120.0654,84.657091 80.509044,113.64644 C 40.952685,142.63579 93.095917,170.94263 45.456862,182.58773 C -2.1821925,194.23284 27.717926,145.87095 -20.751209,138.39895 C -69.220343,130.92694 -78.007559,157.855 -91.166043,148.8364 C -101.77153,141.56758 -80.866337,123.85616 -109.85569,84.299798 C -138.84503,44.743439 -165.13158,93.856209 -176.77668,46.217158 C -188.42178,-1.4218961 -142.0802,31.50868 -134.60819,-16.960455 C -127.13619,-65.429589 -172.20906,-83.068128 -164.23855,-94.44635 C -154.58589,-108.22591 -120.0654,-77.075583 -80.509044,-106.06493 C -40.952685,-135.05428 -95.116222,-167.40173 -47.477167,-179.04684 C 0.16188736,-190.69194 -27.717926,-138.28944 20.751209,-130.81744 C 69.220343,-123.34543 81.745599,-157.62854 96.216805,-146.30565 C 108.44312,-136.73927 80.866337,-116.27465 109.85569,-76.71829 C 138.84503,-37.161931 179.27371,-87.284861 190.91881,-39.645802 C 202.56391,7.9932515 142.0802,-23.927172 134.60819,24.541963 C 127.13619,73.011098 152.31446,82.330986 145.04565,96.977098 z "
       id="path2160"
       sodipodi:nodetypes="csssssssssssssssc" />
  </g>
</svg>
